# xmcd
# 
# Track frame offsets:
#     150
#     13027
#     22910
#     41950
#     52087
#     70062
#     84065
#     93912
#     104387
#     120002
#     133135
# 
# Disc length: 1963
# 
# Revision: 5
# Processed by: cddbd v1.5.2PL0 Copyright (c) Steve Scherf et al.
# Submitted via: fre:ac v1.0.31
# 
DISCID=8207a90b
DTITLE=The Jam - The Gift
DYEAR=1982
DGENRE=New Wave
TTITLE0=Happy Together
TTITLE1=Ghosts
TTITLE2=Precious
TTITLE3=Just Who Is the 5 O'Clock Hero?
TTITLE4=Trans-Global Express
TTITLE5=Running on the Spot
TTITLE6=Circus
TTITLE7=The Planner's Dream Goes Wrong
TTITLE8=Carnation
TTITLE9=Town Called Malice
TTITLE10=The Gift
EXTD=
EXTT0=
EXTT1=
EXTT2=
EXTT3=
EXTT4=
EXTT5=
EXTT6=
EXTT7=
EXTT8=
EXTT9=
EXTT10=
PLAYORDER=
